<svg xmlns="http://www.w3.org/2000/svg" width="600" height="600" viewBox="0 0 24 24">
	<style>
		text {
			fill: #8b4513;
			font-family: monospace;
			font-size: 1px;
			font-style: italic;
			font-weight: 900;
		}
	</style>
    <path fill="#8b4513" d="M10 19v-5h4v5c0 .55.45 1 1 1h3c.55 0 1-.45 1-1v-7h1.7c.46 0 .68-.57.33-.87L12.67 3.6c-.38-.34-.96-.34-1.34 0l-8.36 7.53c-.34.3-.13.87.33.87H5v7c0 .55.45 1 1 1h3c.55 0 1-.45 1-1z"/>
	<rect x="0" y="22.8" width="4.6" height="1.3" fill="#8b451344" />
	<text x="0.2" y="23.8">#3 Home</text>
</svg>
